<!--Scalable Vector Graphic-->
<svg version = "1.1"
	id = "Greetings"
	xmlns = "http://www.w3.org/2000/svg"
	xmlns: xlink = "http://www.w3.org/1999/xlink"
	viewBox = "0 0 1520 612"
	width = "100%"
	height = "100%">
  <style type="text/css">
		.st0 {
			fill: #B8C5D8;
		}
		.st1 {
			fill: #F55C5C;
		}
	  	.st2 {
			fill: #EBDD2D;
		}
	</style>
  <g>
    <path class = "st0" d = "M114.9,309.1V410c0,4.1,0.9,7.2,2.8,9.3c1.8,2.1,5.2,3.8,9.9,5.2v6.3H71.1v-6.3c4.8-1.3,8.1-3,9.9-5.2
			c1.8-2.1,2.8-5.2,2.8-9.3V180.9c0-4-0.9-7-2.8-9.1c-1.9-2.1-5.2-3.8-9.9-5.2v-6.3h142.3c19.9,0,35.5,1.1,46.6,3.2
			c11.1,2.1,21,5.9,29.7,11.5c9.1,5.5,16.5,13.1,22,22.8c6.2,10.8,9.3,23,9.3,36.5c0,18.5-5.7,34.4-17,47.6
			c-8.7,10.2-19.8,17.3-33.2,21.3c-13.4,4-32.5,6-57.4,6H114.9z M114.9,283.3h101.5c15.1,0,26.3-0.6,33.6-1.8
			c7.3-1.2,13.9-3.5,19.7-6.9c13.5-7.9,20.2-21.2,20.2-39.8c0-18.8-6.7-32.1-20.2-40c-5.8-3.4-12.4-5.7-19.6-6.9
			c-7.3-1.2-18.5-1.8-33.7-1.8H114.9V283.3z"/>
    <path class = "st0" d = "M389.1,330.3v78.1c0,5.4,0.9,9.3,2.6,11.6c1.7,2.3,5.1,4.1,10.1,5.4v5.4h-53.7v-5.4c5.2-1.3,8.6-3.1,10.2-5.4
			c1.7-2.3,2.5-6.2,2.5-11.6V231.2c0-5.5-0.9-9.4-2.6-11.7c-1.7-2.2-5.1-4-10.1-5.4v-5.4h131.8c14.9,0,27.1,1.1,36.6,3.2
			c9.4,2.1,17.7,5.7,24.7,10.7c15.3,10.8,23,26.7,23,47.6c0,17-5.4,30.5-16.1,40.3c-10.7,9.8-26.4,15.8-47.2,17.7l55.7,88.4
			c2,3,3.9,5.1,5.8,6.2c1.9,1.1,5.3,1.9,10.2,2.6v5.4h-54.9v-5.4c5.2-1.1,7.7-2.7,7.7-5c0-1.6-1.5-4.8-4.6-9.5l-51.1-80.7H389.1z
			 M389.1,308.7h84.4c13.6,0,23.8-0.5,30.6-1.5c6.8-1,12.6-2.8,17.3-5.5c10.4-5.8,15.7-15.9,15.7-30.3c0-13.9-4.9-24.3-14.7-31.3
			c-9-6.5-24.2-9.7-45.8-9.7h-87.6V308.7z"/>
    <path class = "st0" d = "M714.4,209.4c34.7,0,62.6,9.8,83.9,29.5c22.6,20.8,33.9,48.3,33.9,82.4c0,21.3-5.6,40.8-16.7,58.6
			c-21,33.5-54.6,50.3-100.8,50.3c-34.5,0-62.3-9.8-83.5-29.5c-22.6-20.9-33.9-47.9-33.9-80.9c0-22.3,5.5-42.3,16.5-60.1
			c11.7-18.8,28.1-32.4,49.2-41C677.6,212.8,694.7,209.7,714.4,209.4z M714.4,231.4c-28.3,0-51.1,9.5-68.4,28.4
			c-15.1,16.4-22.6,36.4-22.6,60.1c0,23.7,7.5,43.7,22.6,60.1c17.3,18.9,40.2,28.4,68.7,28.4c28.5,0,51.5-9.5,68.7-28.4
			c15.1-16.4,22.6-36,22.6-59c0-24.8-7.5-45.2-22.6-61.2C766.1,241.1,743.1,231.6,714.4,231.4z"/>
    <path class = "st0" d = "M1070.9,224.3l-20.9,41.5l-4.6-2.3c0.6-3.7,1-6.2,1-7.6c0-3-4.1-6.7-12.4-11c-17.5-9.4-38.8-14.1-64-14.1
			c-20.2,0-37.3,3.7-51.4,11.2c-14.1,7.6-21.1,18.2-21.1,31.8c0,6.1,1.8,11.6,5.3,16.5c3.6,4.9,8.3,8.3,14.3,10.4
			c6,2,12.4,3.4,19.4,4c7,0.6,22,1.4,44.9,2.3c19.2,0.6,33.7,1.8,43.5,3.6c9.8,1.8,18.2,4.6,25.2,8.6c7.5,4.2,13.4,10.2,17.7,18.2
			c4.3,7.9,6.5,16.6,6.5,26c0,19.7-8.1,35.3-24.2,47c-19.3,13.8-44.9,20.7-76.9,20.7c-15.7,0-32.3-2.4-49.6-7.2
			c-17.3-4.8-33.4-11.4-48.2-19.8c-2-1.3-3.6-1.9-4.6-1.9c-1.9,0-4.8,2.2-8.6,6.7l-4.4-2.9l24.2-40.5l4.6,2.7
			c-0.4,1.5-0.6,2.5-0.8,3c-0.6,2-1,3.7-1,4.9c0,3.6,6.5,8.8,19.4,15.6c21.8,11.5,44.5,17.3,67.9,17.3c21.4,0,39.3-3.7,53.5-11
			c6.9-3.6,12.3-8.3,16.4-14.4c4.1-6,6.1-12.3,6.1-18.9c0-6.1-1.7-11.5-5.1-16.4c-3.4-4.8-7.9-8.2-13.5-10.3c-5.2-1.8-11-3-17.4-3.8
			c-6.4-0.8-18.5-1.5-36.3-2.1c-20.9-0.9-35.9-1.9-44.9-3.1c-9-1.2-17.5-3.3-25.5-6.2c-10.2-3.7-18.3-9.6-24.6-17.9
			c-6.2-8.5-9.3-18.5-9.3-30.1c0-20.4,9.3-36.5,27.8-48.2c18.9-11.9,42.9-17.9,72.1-17.9c26.6,0,53.4,6,80.3,17.9
			c4.1,1.7,6.4,2.5,7,2.5c2,0,4.4-2.3,7.2-7L1070.9,224.3z"/>
    <path class = "st0" d = "M1117.9,408.4V231.2c0-5.5-0.9-9.4-2.6-11.7c-1.7-2.2-5.1-4-10.1-5.4v-5.4h53.7v5.4c-5,1.3-8.4,3.1-10.1,5.4
			c-1.7,2.2-2.6,6.1-2.6,11.7v177.2c0,5.4,0.9,9.3,2.6,11.6c1.7,2.3,5.1,4.1,10.1,5.4v5.4h-53.7v-5.4c5-1.3,8.4-3.1,10.1-5.4
			C1117.1,417.7,1117.9,413.8,1117.9,408.4z"/>
    <path class = "st1" d = "M 1426.5 168.8 L 1426.5 174.1 L 1249 400 L 1394 400 C 1392.667 405.667 1392 402.667 1392 413 C 1392.667 423.333 1396 426.667 1394 426.9 L 1197.8 426.9 L 1197.8 421.4 L 1376 197 L 1246 197 C 1246.333 192.667 1248.667 194.667 1249 183 C 1248.667 175.333 1248.333 175 1246 168.8 L 1426.5 168.8 L 1426.5 168.8 Z"/>
    <ellipse class = "st1" cx = "1217" cy = "182.5" rx = "32" ry = "32"/>
    <ellipse class = "st2" cx = "1423.8" cy = "412" rx = "32" ry = "32"/>
  </g>
</svg>
